<svg width="400" height="225" viewBox="0 0 400 225" fill="none" xmlns="http://www.w3.org/2000/svg">
  <rect width="400" height="225" fill="#0a192f"/>
  <rect x="10" y="10" width="380" height="205" rx="8" fill="#112240"/>
  <rect x="20" y="20" width="120" height="185" rx="4" fill="#0a192f"/>
  <circle cx="80" cy="50" r="20" fill="#64ffda" opacity="0.3"/>
  <circle cx="80" cy="50" r="12" fill="#64ffda" opacity="0.6"/>
  <circle cx="80" cy="50" r="6" fill="#64ffda"/>
  <rect x="30" y="80" width="80" height="8" rx="4" fill="#64ffda" opacity="0.4"/>
  <rect x="30" y="95" width="60" height="8" rx="4" fill="#64ffda" opacity="0.3"/>
  <rect x="30" y="110" width="70" height="8" rx="4" fill="#64ffda" opacity="0.3"/>
  <rect x="150" y="20" width="230" height="30" rx="4" fill="#0a192f"/>
  <rect x="160" y="28" width="80" height="14" rx="7" fill="#64ffda" opacity="0.5"/>
  <circle cx="360" cy="35" r="8" fill="#ff6b6b"/>
  <rect x="150" y="60" width="110" height="70" rx="6" fill="#0a192f"/>
  <rect x="155" y="65" width="100" height="60" rx="4" fill="#112240"/>
  <circle cx="180" cy="85" r="10" fill="#64ffda" opacity="0.3"/>
  <rect x="200" y="78" width="45" height="6" rx="3" fill="#64ffda" opacity="0.4"/>
  <rect x="200" y="88" width="35" height="6" rx="3" fill="#64ffda" opacity="0.3"/>
  <rect x="160" y="105" width="90" height="15" rx="3" fill="#64ffda" opacity="0.2"/>
  <rect x="270" y="60" width="110" height="70" rx="6" fill="#0a192f"/>
  <rect x="275" y="65" width="100" height="60" rx="4" fill="#112240"/>
  <rect x="285" y="75" width="80" height="6" rx="3" fill="#64ffda" opacity="0.4"/>
  <rect x="285" y="85" width="60" height="6" rx="3" fill="#64ffda" opacity="0.3"/>
  <rect x="285" y="95" width="70" height="6" rx="3" fill="#64ffda" opacity="0.3"/>
  <rect x="285" y="105" width="50" height="6" rx="3" fill="#64ffda" opacity="0.2"/>
  <rect x="150" y="140" width="230" height="55" rx="6" fill="#0a192f"/>
  <rect x="160" y="150" width="40" height="35" rx="4" fill="#112240"/>
  <rect x="165" y="155" width="30" height="4" rx="2" fill="#64ffda" opacity="0.5"/>
  <rect x="165" y="163" width="20" height="4" rx="2" fill="#64ffda" opacity="0.3"/>
  <rect x="210" y="150" width="40" height="35" rx="4" fill="#112240"/>
  <rect x="215" y="155" width="30" height="4" rx="2" fill="#64ffda" opacity="0.5"/>
  <rect x="215" y="163" width="25" height="4" rx="2" fill="#64ffda" opacity="0.3"/>
  <rect x="260" y="150" width="40" height="35" rx="4" fill="#112240"/>
  <rect x="265" y="155" width="30" height="4" rx="2" fill="#64ffda" opacity="0.5"/>
  <rect x="265" y="163" width="22" height="4" rx="2" fill="#64ffda" opacity="0.3"/>
  <rect x="310" y="150" width="60" height="35" rx="4" fill="#112240"/>
  <circle cx="340" cy="167" r="10" fill="#64ffda" opacity="0.3"/>
</svg>