<svg width="400" height="225" viewBox="0 0 400 225" fill="none" xmlns="http://www.w3.org/2000/svg">
  <rect width="400" height="225" fill="#0a192f"/>
  <rect x="10" y="10" width="380" height="205" rx="8" fill="#112240"/>
  <rect x="20" y="20" width="360" height="185" rx="4" fill="#0a192f"/>
  <circle cx="200" cy="70" r="35" fill="#64ffda" opacity="0.2"/>
  <circle cx="200" cy="70" r="25" fill="#64ffda" opacity="0.3"/>
  <circle cx="200" cy="70" r="15" fill="#64ffda" opacity="0.5"/>
  <circle cx="200" cy="70" r="8" fill="#64ffda"/>
  <path d="M200 35V30M200 110V105M235 70H240M160 70H165M225 45L230 40M175 95L170 100M225 95L230 100M175 45L170 40" stroke="#64ffda" stroke-width="2" opacity="0.6"/>
  <rect x="30" y="120" width="100" height="70" rx="6" fill="#112240"/>
  <rect x="40" y="130" width="30" height="30" rx="15" fill="#64ffda" opacity="0.3"/>
  <rect x="48" y="138" width="14" height="14" rx="7" fill="#64ffda"/>
  <rect x="80" y="135" width="40" height="6" rx="3" fill="#64ffda" opacity="0.4"/>
  <rect x="80" y="145" width="30" height="6" rx="3" fill="#64ffda" opacity="0.3"/>
  <rect x="40" y="170" width="80" height="12" rx="6" fill="#64ffda" opacity="0.2"/>
  <rect x="140" y="120" width="100" height="70" rx="6" fill="#112240"/>
  <rect x="150" y="130" width="80" height="40" rx="4" fill="#0a192f"/>
  <path d="M155 165L165 155L175 160L195 145" stroke="#64ffda" stroke-width="2" stroke-linecap="round"/>
  <circle cx="195" cy="145" r="3" fill="#64ffda"/>
  <rect x="250" y="120" width="120" height="70" rx="6" fill="#112240"/>
  <rect x="260" y="130" width="100" height="25" rx="4" fill="#0a192f"/>
  <rect x="265" y="135" width="20" height="15" rx="3" fill="#64ffda" opacity="0.5"/>
  <rect x="290" y="138" width="60" height="6" rx="3" fill="#64ffda" opacity="0.4"/>
  <rect x="260" y="160" width="45" height="20" rx="4" fill="#0a192f"/>
  <rect x="265" y="165" width="15" height="10" rx="2" fill="#64ffda" opacity="0.4"/>
  <rect x="283" y="165" width="15" height="10" rx="2" fill="#64ffda" opacity="0.4"/>
  <rect x="315" y="160" width="45" height="20" rx="4" fill="#0a192f"/>
  <rect x="320" y="165" width="35" height="10" rx="2" fill="#64ffda" opacity="0.3"/>
  <rect x="30" y="200" width="340" height="8" rx="4" fill="#0a192f"/>
  <rect x="30" y="200" width="200" height="8" rx="4" fill="#64ffda" opacity="0.6"/>
</svg>