<svg width="400" height="225" viewBox="0 0 400 225" fill="none" xmlns="http://www.w3.org/2000/svg">
  <rect width="400" height="225" fill="#0a192f"/>
  <rect x="10" y="10" width="380" height="205" rx="8" fill="#112240"/>
  <rect x="20" y="20" width="360" height="185" rx="4" fill="#0a192f"/>
  <rect x="30" y="30" width="340" height="40" rx="4" fill="#112240"/>
  <rect x="40" y="40" width="80" height="20" rx="4" fill="#0a192f"/>
  <rect x="45" y="45" width="70" height="10" rx="5" fill="#64ffda" opacity="0.3"/>
  <circle cx="130" cy="50" r="8" fill="#64ffda" opacity="0.5"/>
  <rect x="290" y="38" width="70" height="24" rx="12" fill="#64ffda" opacity="0.3"/>
  <rect x="300" y="45" width="20" height="10" rx="5" fill="#64ffda"/>
  <rect x="325" y="45" width="25" height="10" rx="5" fill="#0a192f"/>
  <rect x="30" y="80" width="180" height="115" rx="6" fill="#112240"/>
  <rect x="40" y="90" width="160" height="95" rx="4" fill="#0a192f"/>
  <circle cx="80" cy="120" r="20" fill="#64ffda" opacity="0.2"/>
  <circle cx="80" cy="120" r="12" fill="#64ffda" opacity="0.4"/>
  <circle cx="80" cy="120" r="6" fill="#64ffda"/>
  <rect x="110" y="108" width="80" height="6" rx="3" fill="#64ffda" opacity="0.4"/>
  <rect x="110" y="118" width="60" height="6" rx="3" fill="#64ffda" opacity="0.3"/>
  <rect x="110" y="128" width="70" height="6" rx="3" fill="#64ffda" opacity="0.3"/>
  <rect x="40" y="150" width="160" height="25" rx="4" fill="#112240"/>
  <rect x="45" y="155" width="40" height="15" rx="3" fill="#64ffda" opacity="0.3"/>
  <rect x="90" y="155" width="40" height="15" rx="3" fill="#64ffda" opacity="0.3"/>
  <rect x="135" y="155" width="55" height="15" rx="3" fill="#64ffda" opacity="0.5"/>
  <rect x="220" y="80" width="150" height="115" rx="6" fill="#112240"/>
  <rect x="230" y="90" width="130" height="30" rx="4" fill="#0a192f"/>
  <circle cx="250" cy="105" r="8" fill="#64ffda" opacity="0.5"/>
  <rect x="265" y="100" width="85" height="6" rx="3" fill="#64ffda" opacity="0.4"/>
  <rect x="265" y="108" width="60" height="6" rx="3" fill="#64ffda" opacity="0.3"/>
  <rect x="230" y="125" width="130" height="30" rx="4" fill="#0a192f"/>
  <circle cx="250" cy="140" r="8" fill="#64ffda" opacity="0.5"/>
  <rect x="265" y="135" width="85" height="6" rx="3" fill="#64ffda" opacity="0.4"/>
  <rect x="265" y="143" width="70" height="6" rx="3" fill="#64ffda" opacity="0.3"/>
  <rect x="230" y="160" width="130" height="25" rx="4" fill="#64ffda" opacity="0.2"/>
</svg>