<svg width="400" height="225" viewBox="0 0 400 225" fill="none" xmlns="http://www.w3.org/2000/svg">
  <rect width="400" height="225" fill="#1a1a2e"/>
  <rect x="10" y="10" width="380" height="205" rx="8" fill="#16213e"/>
  <rect x="20" y="20" width="360" height="185" rx="4" fill="#1a1a2e"/>
  <text x="40" y="45" fill="#e94560" font-size="14" font-family="Arial" font-weight="bold">Wellness Analytics</text>
  <rect x="40" y="60" width="150" height="70" rx="6" fill="#16213e"/>
  <text x="55" y="80" fill="#e94560" font-size="9" font-family="Arial">Stress Level</text>
  <rect x="55" y="90" width="120" height="10" rx="5" fill="#1a1a2e"/>
  <rect x="55" y="90" width="70" height="10" rx="5" fill="#e94560" opacity="0.5"/>
  <text x="55" y="115" fill="#e94560" font-size="16" font-family="Arial" font-weight="bold">Low</text>
  <rect x="210" y="60" width="150" height="70" rx="6" fill="#16213e"/>
  <text x="225" y="80" fill="#e94560" font-size="9" font-family="Arial">Sleep Quality</text>
  <circle cx="285" cy="95" r="20" fill="none" stroke="#e94560" stroke-width="5" opacity="0.3"/>
  <circle cx="285" cy="95" r="20" fill="none" stroke="#e94560" stroke-width="5" stroke-dasharray="100 126" stroke-linecap="round"/>
  <text x="270" y="100" fill="#e94560" font-size="12" font-family="Arial" font-weight="bold">78%</text>
  <rect x="40" y="140" width="320" height="55" rx="6" fill="#16213e"/>
  <text x="55" y="158" fill="#e94560" font-size="9" font-family="Arial">Activity This Week</text>
  <rect x="55" y="168" width="20" height="18" rx="2" fill="#e94560" opacity="0.3"/>
  <rect x="55" y="180" width="20" height="6" rx="2" fill="#e94560"/>
  <rect x="85" y="162" width="20" height="24" rx="2" fill="#e94560" opacity="0.3"/>
  <rect x="85" y="172" width="20" height="14" rx="2" fill="#e94560"/>
  <rect x="115" y="165" width="20" height="21" rx="2" fill="#e94560" opacity="0.3"/>
  <rect x="115" y="175" width="20" height="11" rx="2" fill="#e94560"/>
  <rect x="145" y="160" width="20" height="26" rx="2" fill="#e94560" opacity="0.3"/>
  <rect x="145" y="170" width="20" height="16" rx="2" fill="#e94560"/>
  <rect x="175" y="163" width="20" height="23" rx="2" fill="#e94560" opacity="0.3"/>
  <rect x="175" y="173" width="20" height="13" rx="2" fill="#e94560"/>
  <rect x="205" y="158" width="20" height="28" rx="2" fill="#e94560" opacity="0.3"/>
  <rect x="205" y="168" width="20" height="18" rx="2" fill="#e94560"/>
  <rect x="235" y="165" width="20" height="21" rx="2" fill="#e94560" opacity="0.3"/>
  <rect x="235" y="175" width="20" height="11" rx="2" fill="#e94560"/>
  <rect x="265" y="160" width="20" height="26" rx="2" fill="#e94560" opacity="0.3"/>
  <rect x="265" y="170" width="20" height="16" rx="2" fill="#e94560"/>
  <rect x="295" y="167" width="20" height="19" rx="2" fill="#e94560" opacity="0.3"/>
  <rect x="295" y="177" width="20" height="9" rx="2" fill="#e94560"/>
  <text x="55" y="210" fill="#e94560" font-size="8" font-family="Arial">Mon</text>
  <text x="85" y="210" fill="#e94560" font-size="8" font-family="Arial">Tue</text>
  <text x="115" y="210" fill="#e94560" font-size="8" font-family="Arial">Wed</text>
  <text x="145" y="210" fill="#e94560" font-size="8" font-family="Arial">Thu</text>
  <text x="175" y="210" fill="#e94560" font-size="8" font-family="Arial">Fri</text>
  <text x="205" y="210" fill="#e94560" font-size="8" font-family="Arial">Sat</text>
  <text x="235" y="210" fill="#e94560" font-size="8" font-family="Arial">Sun</text>
  <rect x="320" y="60" width="40" height="30" rx="4" fill="#e94560" opacity="0.2"/>
  <text x="330" y="78" fill="#e94560" font-size="8" font-family="Arial">Export</text>
</svg>