<svg width="400" height="225" viewBox="0 0 400 225" fill="none" xmlns="http://www.w3.org/2000/svg">
  <rect width="400" height="225" fill="#1a1a2e"/>
  <rect x="10" y="10" width="380" height="205" rx="8" fill="#16213e"/>
  <rect x="20" y="20" width="360" height="185" rx="4" fill="#1a1a2e"/>
  <rect x="20" y="20" width="360" height="50" rx="4" fill="#16213e"/>
  <circle cx="50" cy="45" r="15" fill="#e94560" opacity="0.3"/>
  <circle cx="50" cy="45" r="8" fill="#e94560"/>
  <rect x="80" y="38" width="100" height="6" rx="3" fill="#e94560" opacity="0.5"/>
  <rect x="80" y="48" width="60" height="6" rx="3" fill="#e94560" opacity="0.3"/>
  <rect x="300" y="32" width="70" height="26" rx="13" fill="#e94560" opacity="0.3"/>
  <rect x="310" y="40" width="20" height="10" rx="5" fill="#e94560"/>
  <rect x="335" y="40" width="25" height="10" rx="5" fill="#1a1a2e"/>
  <rect x="20" y="80" width="170" height="115" rx="6" fill="#16213e"/>
  <rect x="30" y="90" width="150" height="95" rx="4" fill="#1a1a2e"/>
  <text x="50" y="110" fill="#e94560" font-size="10" font-family="Arial">Mood Today</text>
  <circle cx="80" cy="140" r="25" fill="#e94560" opacity="0.2"/>
  <circle cx="80" cy="140" r="15" fill="#e94560" opacity="0.4"/>
  <circle cx="80" cy="140" r="8" fill="#e94560"/>
  <path d="M70 145C70 145 75 152 80 152C85 152 90 145 90 145" stroke="#1a1a2e" stroke-width="2" stroke-linecap="round"/>
  <rect x="115" y="120" width="55" height="40" rx="4" fill="#1a1a2e"/>
  <rect x="120" y="125" width="45" height="8" rx="4" fill="#e94560" opacity="0.5"/>
  <rect x="120" y="137" width="30" height="6" rx="3" fill="#e94560" opacity="0.3"/>
  <rect x="30" y="155" width="150" height="20" rx="4" fill="#1a1a2e"/>
  <rect x="35" y="160" width="30" height="10" rx="5" fill="#e94560" opacity="0.4"/>
  <rect x="70" y="160" width="30" height="10" rx="5" fill="#e94560" opacity="0.3"/>
  <rect x="105" y="160" width="30" height="10" rx="5" fill="#e94560" opacity="0.3"/>
  <rect x="140" y="160" width="30" height="10" rx="5" fill="#e94560" opacity="0.3"/>
  <rect x="200" y="80" width="180" height="115" rx="6" fill="#16213e"/>
  <text x="220" y="100" fill="#e94560" font-size="10" font-family="Arial">Weekly Trends</text>
  <rect x="220" y="110" width="150" height="70" rx="4" fill="#1a1a2e"/>
  <rect x="230" y="165" width="15" height="10" rx="2" fill="#e94560" opacity="0.3"/>
  <rect x="250" y="155" width="15" height="20" rx="2" fill="#e94560" opacity="0.5"/>
  <rect x="270" y="145" width="15" height="30" rx="2" fill="#e94560" opacity="0.4"/>
  <rect x="290" y="160" width="15" height="15" rx="2" fill="#e94560" opacity="0.6"/>
  <rect x="310" y="140" width="15" height="35" rx="2" fill="#e94560" opacity="0.5"/>
  <rect x="330" y="150" width="15" height="25" rx="2" fill="#e94560" opacity="0.4"/>
  <rect x="350" y="158" width="15" height="17" rx="2" fill="#e94560" opacity="0.5"/>
  <rect x="220" y="185" width="20" height="6" rx="3" fill="#e94560" opacity="0.3"/>
  <rect x="250" y="185" width="20" height="6" rx="3" fill="#e94560" opacity="0.3"/>
  <rect x="280" y="185" width="20" height="6" rx="3" fill="#e94560" opacity="0.3"/>
  <rect x="310" y="185" width="20" height="6" rx="3" fill="#e94560" opacity="0.3"/>
  <rect x="340" y="185" width="20" height="6" rx="3" fill="#e94560" opacity="0.3"/>
  <rect x="20" y="205" width="360" height="4" rx="2" fill="#16213e"/>
</svg>