<svg width="400" height="225" viewBox="0 0 400 225" fill="none" xmlns="http://www.w3.org/2000/svg">
  <rect width="400" height="225" fill="#0d1b2a"/>
  <rect x="10" y="10" width="380" height="205" rx="8" fill="#1b263b"/>
  <rect x="20" y="20" width="100" height="185" rx="4" fill="#0d1b2a"/>
  <rect x="30" y="30" width="80" height="30" rx="4" fill="#415a77" opacity="0.5"/>
  <text x="42" y="50" fill="#7b68ee" font-size="10" font-family="Arial" font-weight="bold">Subspace</text>
  <rect x="30" y="70" width="80" height="25" rx="4" fill="#415a77" opacity="0.3"/>
  <circle cx="45" cy="82" r="6" fill="#7b68ee" opacity="0.5"/>
  <text x="55" y="86" fill="#7b68ee" font-size="8" font-family="Arial">Home</text>
  <rect x="30" y="100" width="80" height="25" rx="4" fill="#415a77" opacity="0.3"/>
  <circle cx="45" cy="112" r="6" fill="#7b68ee" opacity="0.5"/>
  <text x="55" y="116" fill="#7b68ee" font-size="8" font-family="Arial">Explore</text>
  <rect x="30" y="130" width="80" height="25" rx="4" fill="#7b68ee" opacity="0.3"/>
  <circle cx="45" cy="142" r="6" fill="#7b68ee"/>
  <text x="55" y="146" fill="#7b68ee" font-size="8" font-family="Arial">Messages</text>
  <rect x="30" y="160" width="80" height="25" rx="4" fill="#415a77" opacity="0.3"/>
  <circle cx="45" cy="172" r="6" fill="#7b68ee" opacity="0.5"/>
  <text x="55" y="176" fill="#7b68ee" font-size="8" font-family="Arial">Profile</text>
  <rect x="130" y="20" width="250" height="40" rx="4" fill="#0d1b2a"/>
  <rect x="140" y="30" width="180" height="20" rx="10" fill="#415a77" opacity="0.3"/>
  <rect x="330" y="30" width="40" height="20" rx="4" fill="#7b68ee" opacity="0.3"/>
  <rect x="130" y="70" width="250" height="80" rx="6" fill="#0d1b2a"/>
  <circle cx="150" cy="90" r="12" fill="#7b68ee" opacity="0.5"/>
  <rect x="170" y="82" width="60" height="6" rx="3" fill="#7b68ee" opacity="0.5"/>
  <rect x="170" y="92" width="40" height="6" rx="3" fill="#7b68ee" opacity="0.3"/>
  <rect x="140" y="110" width="230" height="30" rx="4" fill="#415a77" opacity="0.2"/>
  <text x="150" y="128" fill="#7b68ee" font-size="9" font-family="Arial">Share your thoughts...</text>
  <rect x="330" y="115" width="40" height="20" rx="4" fill="#7b68ee" opacity="0.5"/>
  <rect x="130" y="160" width="250" height="45" rx="6" fill="#0d1b2a"/>
  <circle cx="150" cy="177" r="10" fill="#7b68ee" opacity="0.5"/>
  <rect x="168" y="168" width="80" height="6" rx="3" fill="#7b68ee" opacity="0.5"/>
  <rect x="168" y="178" width="120" height="6" rx="3" fill="#7b68ee" opacity="0.3"/>
  <rect x="168" y="188" width="100" height="6" rx="3" fill="#7b68ee" opacity="0.3"/>
  <rect x="130" y="210" width="250" height="4" rx="2" fill="#0d1b2a"/>
</svg>