<svg width="400" height="225" viewBox="0 0 400 225" fill="none" xmlns="http://www.w3.org/2000/svg">
  <rect width="400" height="225" fill="#0d1b2a"/>
  <rect x="10" y="10" width="380" height="205" rx="8" fill="#1b263b"/>
  <rect x="20" y="20" width="360" height="50" rx="4" fill="#0d1b2a"/>
  <rect x="30" y="30" width="30" height="30" rx="15" fill="#7b68ee" opacity="0.5"/>
  <text x="70" y="42" fill="#7b68ee" font-size="12" font-family="Arial" font-weight="bold">Tech Talk</text>
  <text x="70" y="58" fill="#7b68ee" font-size="9" font-family="Arial" opacity="0.7">12.5k members</text>
  <rect x="280" y="30" width="90" height="30" rx="4" fill="#7b68ee" opacity="0.3"/>
  <text x="305" y="48" fill="#7b68ee" font-size="9" font-family="Arial" font-weight="bold">Join</text>
  <rect x="20" y="80" width="180" height="135" rx="6" fill="#0d1b2a"/>
  <rect x="30" y="90" width="160" height="120" rx="4" fill="#1b263b"/>
  <circle cx="50" cy="108" r="10" fill="#7b68ee" opacity="0.5"/>
  <rect x="68" y="100" width="60" height="6" rx="3" fill="#7b68ee" opacity="0.5"/>
  <rect x="68" y="110" width="40" height="6" rx="3" fill="#7b68ee" opacity="0.3"/>
  <rect x="30" y="125" width="160" height="40" rx="4" fill="#0d1b2a"/>
  <text x="40" y="142" fill="#7b68ee" font-size="9" font-family="Arial">Just discovered a new React pattern!</text>
  <text x="40" y="155" fill="#7b68ee" font-size="8" font-family="Arial" opacity="0.6">Anyone tried server components?</text>
  <rect x="30" y="175" width="50" height="25" rx="4" fill="#7b68ee" opacity="0.2"/>
  <text x="40" y="192" fill="#7b68ee" font-size="8" font-family="Arial">24 💬</text>
  <rect x="85" y="175" width="50" height="25" rx="4" fill="#7b68ee" opacity="0.2"/>
  <text x="95" y="192" fill="#7b68ee" font-size="8" font-family="Arial">18 🔄</text>
  <rect x="140" y="175" width="50" height="25" rx="4" fill="#7b68ee" opacity="0.2"/>
  <text x="150" y="192" fill="#7b68ee" font-size="8" font-family="Arial">45 ❤️</text>
  <rect x="210" y="80" width="170" height="135" rx="6" fill="#0d1b2a"/>
  <text x="220" y="98" fill="#7b68ee" font-size="10" font-family="Arial" font-weight="bold">Members Online</text>
  <circle cx="230" cy="120" r="12" fill="#7b68ee" opacity="0.5"/>
  <rect x="250" y="112" width="60" height="6" rx="3" fill="#7b68ee" opacity="0.5"/>
  <rect x="250" y="122" width="40" height="6" rx="3" fill="#7b68ee" opacity="0.3"/>
  <circle cx="230" cy="150" r="12" fill="#7b68ee" opacity="0.5"/>
  <rect x="250" y="142" width="70" height="6" rx="3" fill="#7b68ee" opacity="0.5"/>
  <rect x="250" y="152" width="50" height="6" rx="3" fill="#7b68ee" opacity="0.3"/>
  <circle cx="230" cy="180" r="12" fill="#7b68ee" opacity="0.5"/>
  <rect x="250" y="172" width="55" height="6" rx="3" fill="#7b68ee" opacity="0.5"/>
  <rect x="250" y="182" width="45" height="6" rx="3" fill="#7b68ee" opacity="0.3"/>
  <circle cx="300" cy="120" r="8" fill="#00ff00" opacity="0.8"/>
  <circle cx="300" cy="150" r="8" fill="#00ff00" opacity="0.6"/>
  <circle cx="300" cy="180" r="8" fill="#00ff00" opacity="0.5"/>
</svg>