<svg width="400" height="225" viewBox="0 0 400 225" xmlns="http://www.w3.org/2000/svg">
  <rect width="400" height="225" fill="#0d1b2a"/>
  <rect x="0" y="0" width="400" height="225" fill="#1b263b" rx="8"/>
  
  <rect x="25" y="20" width="350" height="70" rx="6" fill="#0d1b2a"/>
  <circle cx="65" cy="55" r="25" fill="#7b68ee" opacity="0.6"/>
  <circle cx="65" cy="48" r="10" fill="#0d1b2a"/>
  <ellipse cx="65" cy="68" rx="14" ry="10" fill="#0d1b2a"/>
  
  <rect x="105" y="35" width="120" height="10" rx="5" fill="#7b68ee" opacity="0.7"/>
  <rect x="105" y="52" width="80" height="8" rx="4" fill="#7b68ee" opacity="0.4"/>
  <rect x="105" y="68" width="60" height="6" rx="3" fill="#7b68ee" opacity="0.3"/>
  
  <rect x="280" y="42" width="80" height="28" rx="14" fill="#7b68ee" opacity="0.5"/>
  <rect x="300" y="52" width="40" height="8" rx="4" fill="#7b68ee"/>
  
  <rect x="25" y="105" width="105" height="50" rx="6" fill="#0d1b2a"/>
  <text x="77" y="128" fill="#7b68ee" font-size="18" font-weight="bold" text-anchor="middle" font-family="Arial">1.2k</text>
  <text x="77" y="148" fill="#7b68ee" font-size="9" text-anchor="middle" font-family="Arial" opacity="0.7">Posts</text>
  
  <rect x="145" y="105" width="105" height="50" rx="6" fill="#0d1b2a"/>
  <text x="197" y="128" fill="#7b68ee" font-size="18" font-weight="bold" text-anchor="middle" font-family="Arial">5.8k</text>
  <text x="197" y="148" fill="#7b68ee" font-size="9" text-anchor="middle" font-family="Arial" opacity="0.7">Followers</text>
  
  <rect x="265" y="105" width="110" height="50" rx="6" fill="#0d1b2a"/>
  <text x="320" y="128" fill="#7b68ee" font-size="18" font-weight="bold" text-anchor="middle" font-family="Arial">234</text>
  <text x="320" y="148" fill="#7b68ee" font-size="9" text-anchor="middle" font-family="Arial" opacity="0.7">Following</text>
  
  <rect x="25" y="170" width="350" height="45" rx="6" fill="#0d1b2a"/>
  <rect x="40" y="182" width="150" height="6" rx="3" fill="#7b68ee" opacity="0.5"/>
  <rect x="40" y="194" width="200" height="6" rx="3" fill="#7b68ee" opacity="0.3"/>
  <rect x="40" y="206" width="120" height="5" rx="2.5" fill="#7b68ee" opacity="0.2"/>
</svg>